<?xml version="1.0" standalone="no"?>
<!DOCTYPE svg PUBLIC "-//W3C//DTD SVG 20010904//EN"
 "http://www.w3.org/TR/2001/REC-SVG-20010904/DTD/svg10.dtd">
<svg version="1.0" xmlns="http://www.w3.org/2000/svg"
 width="300.000000pt" height="300.000000pt" viewBox="0 0 300.000000 300.000000"
 preserveAspectRatio="xMidYMid meet">

<g transform="translate(0.000000,300.000000) scale(0.100000,-0.100000)"
fill="#000000" stroke="none">
<path d="M1380 2764 c-428 -53 -767 -272 -980 -633 -113 -192 -170 -422 -170
-690 0 -168 -28 -216 -167 -284 l-63 -31 0 -128 c0 -70 3 -128 6 -128 4 0 235
117 513 259 278 142 762 389 1076 549 314 159 758 385 988 501 l417 213 0 130
c0 71 -4 128 -8 126 -11 -4 -1422 -722 -2025 -1030 -269 -137 -492 -247 -495
-243 -12 12 -4 262 11 330 38 166 96 294 194 422 291 383 819 517 1252 317 40
-19 79 -34 85 -34 6 1 60 27 120 59 l108 59 -62 42 c-112 76 -287 146 -438
176 -76 14 -299 26 -362 18z"/>
<path d="M2580 1921 c-223 -114 -801 -409 -1285 -655 -484 -247 -973 -496
-1087 -555 l-208 -106 0 -128 c0 -71 3 -127 8 -125 14 6 343 174 752 383 618
316 1758 895 1764 895 2 0 7 -42 11 -92 15 -200 -53 -438 -177 -621 -89 -131
-248 -272 -388 -342 -168 -85 -400 -128 -572 -107 -125 16 -238 46 -327 87
-40 19 -78 35 -85 35 -6 0 -60 -27 -120 -59 l-110 -59 73 -47 c174 -112 390
-180 616 -192 530 -28 1033 299 1235 803 60 152 80 259 87 464 8 238 25 272
176 346 l57 28 0 128 c0 70 -3 128 -7 128 -5 -1 -190 -94 -413 -209z"/>
</g>
</svg>
