<?xml version="1.0" encoding="UTF-8"?>
<svg width="24" height="24" viewBox="0 0 24 24" fill="none" xmlns="http://www.w3.org/2000/svg">
  <path d="M19 7H5C3.89543 7 3 7.89543 3 9V18C3 19.1046 3.89543 20 5 20H19C20.1046 20 21 19.1046 21 18V9C21 7.89543 20.1046 7 19 7Z" stroke="#9CA3AF" strokeWidth="2" strokeLinecap="round" strokeLinejoin="round"/>
  <path d="M16 14C16 15.1046 16.8954 16 18 16C19.1046 16 20 15.1046 20 14C20 12.8954 19.1046 12 18 12C16.8954 12 16 12.8954 16 14Z" stroke="#9CA3AF" strokeWidth="2" strokeLinecap="round" strokeLinejoin="round"/>
  <path d="M3 10L21 10" stroke="#9CA3AF" strokeWidth="2" strokeLinecap="round" strokeLinejoin="round"/>
  <path d="M7 5C7 4.44772 7.44772 4 8 4H16C16.5523 4 17 4.44772 17 5V7H7V5Z" stroke="#9CA3AF" strokeWidth="2" strokeLinecap="round" strokeLinejoin="round"/>
</svg> 