<?xml version="1.0" standalone="no"?>
<!DOCTYPE svg PUBLIC "-//W3C//DTD SVG 20010904//EN"
 "http://www.w3.org/TR/2001/REC-SVG-20010904/DTD/svg10.dtd">
<svg version="1.0" xmlns="http://www.w3.org/2000/svg"
 width="300.000000pt" height="300.000000pt" viewBox="0 0 300.000000 300.000000"
 preserveAspectRatio="xMidYMid meet">

<g transform="translate(0.000000,300.000000) scale(0.100000,-0.100000)"
fill="#000000" stroke="none">
<path d="M1330 2989 c-95 -11 -262 -53 -361 -90 -198 -72 -360 -178 -525 -343
-223 -224 -346 -454 -415 -777 -32 -149 -32 -409 0 -558 69 -323 192 -553 415
-777 224 -223 454 -346 777 -415 149 -32 409 -32 558 0 323 69 553 192 777
415 223 224 346 454 415 777 32 149 32 409 0 558 -69 323 -192 553 -415 777
-224 224 -461 350 -777 414 -119 24 -335 34 -449 19z m38 -789 c361 -67 668
-125 682 -131 14 -6 100 -83 192 -172 l168 -162 -496 -603 c-273 -332 -497
-602 -499 -600 -2 2 -156 388 -343 858 -187 470 -347 872 -355 893 -9 20 -14
37 -11 37 3 0 301 -54 662 -120z"/>
<path d="M1250 1936 c157 -131 290 -240 297 -243 6 -2 95 65 196 149 l184 154
-451 83 c-248 46 -464 85 -481 88 -22 5 42 -54 255 -231z"/>
<path d="M1132 1497 c132 -331 247 -621 255 -645 8 -24 18 -40 22 -37 5 6 102
778 98 781 -1 0 -135 111 -297 245 -162 135 -300 248 -306 252 -6 4 96 -264
228 -596z"/>
<path d="M1861 1814 c-95 -79 -166 -144 -158 -144 12 0 510 87 529 93 4 1 -39
45 -95 98 l-103 97 -173 -144z"/>
<path d="M1892 1605 c-155 -29 -285 -54 -287 -56 -4 -5 -95 -742 -92 -745 1
-2 75 86 163 194 89 108 247 302 353 430 153 186 187 232 169 231 -13 -1 -150
-25 -306 -54z"/>
</g>
</svg>
